<svg xmlns="http://www.w3.org/2000/svg" viewBox="0 0 32 32" fill="none" aria-hidden="true">
  <defs>
    <linearGradient id="lingora-gradient" x1="0%" y1="0%" x2="100%" y2="0%">
      <stop offset="0%" stop-color="#4f46e5" />
      <stop offset="50%" stop-color="#8b5cf6" />
      <stop offset="100%" stop-color="#d946ef" />
    </linearGradient>
  </defs>
  <g transform="translate(4 4)" stroke="url(#lingora-gradient)" stroke-width="2" stroke-linecap="round" stroke-linejoin="round" fill="none">
    <circle cx="12" cy="12" r="10" />
    <path d="M21.54 15H17a2 2 0 0 0-2 2v4.54" />
    <path d="M7 3.34V5a3 3 0 0 0 3 3a2 2 0 0 1 2 2c0 1.1.9 2 2 2a2 2 0 0 0 2-2c0-1.1.9-2 2-2h3.17" />
    <path d="M11 21.95V18a2 2 0 0 0-2-2a2 2 0 0 1-2-2v-1a2 2 0 0 0-2-2H2.05" />
  </g>
</svg>
